<?xml version="1.0" encoding="utf-8"?>
<!-- Generator: Adobe Illustrator 16.0.0, SVG Export Plug-In . SVG Version: 6.00 Build 0)  -->
<!DOCTYPE svg PUBLIC "-//W3C//DTD SVG 1.1//EN" "http://www.w3.org/Graphics/SVG/1.1/DTD/svg11.dtd">
<svg version="1.1" id="Layer_1" xmlns="http://www.w3.org/2000/svg" xmlns:xlink="http://www.w3.org/1999/xlink" x="0px" y="0px"
	 width="127.777px" height="66.667px" viewBox="0 0 127.777 66.667" enable-background="new 0 0 127.777 66.667"
	 xml:space="preserve">
<g>
	<g>
		<path fill-rule="evenodd" clip-rule="evenodd" fill="#20A4B2" d="M5.246,52.758c1.651-3.417,3.345-6.814,4.945-10.256
			c4.241-9.117,8.468-18.239,12.627-27.393c0.565-1.245,1.225-1.65,2.587-1.646c16.077,0.053,32.153,0.035,48.23,0.035
			c0.564,0,1.131,0,1.881,0c0,4.596,0,9.021,0,13.452c0.287,0,0.436,0.045,0.484-0.006c6.482-6.56,15.717-4.433,18.559,4.447
			c1.746,5.453,1.203,10.905-1.611,15.946c-2.521,4.512-8.057,6.67-12.844,4.945c-1.707-0.614-3.145-1.979-4.699-2.998
			c0,0.59,0,1.521,0,2.591c-1.549,0-2.9,0-4.551,0c0-6.233,0-12.507,0-18.781c0-6.242,0-12.484,0-19.233
			c-0.455,0.761-0.699,1.098-0.869,1.468c-5.511,11.902-11.044,23.794-16.483,35.729c-0.719,1.578-1.524,2.16-3.323,2.147
			c-14.978-0.104-29.956-0.082-44.934-0.1C5.246,52.989,5.246,52.874,5.246,52.758z M90.901,37.755
			c-0.439-2.089-0.695-4.221-1.361-6.216c-0.842-2.529-2.861-3.827-5.492-4.104c-2.852-0.3-5.436,0.373-6.82,3.047
			c-2.309,4.454-2.674,9.191-0.82,13.886c1.141,2.885,3.537,4.336,6.682,4.322c3.012-0.012,5.4-1.629,6.412-4.634
			C90.175,42.063,90.435,39.93,90.901,37.755z"/>
		<path fill-rule="evenodd" clip-rule="evenodd" fill="#20A4B2" d="M122.532,33.326c-1.441,0-2.881,0-4.408,0
			c-0.143-0.373-0.303-0.729-0.418-1.099c-0.945-3.015-2.691-4.56-5.443-4.801c-3.326-0.29-5.822,0.915-7.166,3.733
			c-2.131,4.469-2.076,9.069-0.246,13.605c1.082,2.681,3.27,3.912,6.158,3.947c2.877,0.036,5.189-1.31,5.936-3.904
			c0.785-2.729,2.377-2.92,4.561-2.715c0.336,0.031,0.684-0.059,1.027-0.092c0,0.347,0,0.694,0,1.041
			c-0.189,0.539-0.396,1.072-0.563,1.619c-1.361,4.497-4.213,7.417-8.973,8.007c-5.016,0.622-9.295-0.829-12.15-5.244
			c-3.469-5.364-2.936-14.814,1.014-19.82c4.145-5.255,13.322-6.169,17.551-1.507c1.438,1.586,2.102,3.874,3.121,5.841
			C122.532,32.4,122.532,32.863,122.532,33.326z"/>
	</g>
</g>
</svg>
