<?xml version="1.0" encoding="utf-8"?>
<!-- Generator: Adobe Illustrator 16.0.0, SVG Export Plug-In . SVG Version: 6.00 Build 0)  -->
<!DOCTYPE svg PUBLIC "-//W3C//DTD SVG 1.1//EN" "http://www.w3.org/Graphics/SVG/1.1/DTD/svg11.dtd">
<svg version="1.1" id="Layer_1" xmlns="http://www.w3.org/2000/svg" xmlns:xlink="http://www.w3.org/1999/xlink" x="0px" y="0px"
	 width="127.777px" height="66.667px" viewBox="0 0 127.777 66.667" enable-background="new 0 0 127.777 66.667"
	 xml:space="preserve">
<path fill-rule="evenodd" clip-rule="evenodd" fill="#20A4B2" stroke="#20A4B2" stroke-miterlimit="10" d="M63.889,59.573
	c-5.182,0-10.364,0.01-15.545-0.004c-5.223-0.012-9.456-3.42-10.475-8.443c-0.151-0.744-0.21-1.52-0.212-2.279
	c-0.013-10.342-0.015-20.684-0.006-31.025c0.004-5.235,3.393-9.467,8.413-10.499c0.764-0.158,1.561-0.218,2.343-0.219
	c10.32-0.015,20.64-0.017,30.959-0.008c6.161,0.006,10.751,4.577,10.757,10.724c0.013,10.341,0.011,20.684,0.001,31.025
	c-0.004,5.236-3.392,9.469-8.413,10.498c-0.806,0.164-1.648,0.217-2.473,0.219C74.121,59.583,69.006,59.573,63.889,59.573z
	 M43.658,29.394c0,0.283,0,0.498,0,0.713c0,6.582-0.001,13.162,0.001,19.744c0,2.33,1.328,3.658,3.658,3.66
	c10.997,0.002,21.995,0.002,32.993,0c2.328-0.002,3.661-1.334,3.661-3.658c0.002-6.582,0.001-13.162,0.001-19.744
	c0-0.231,0-0.463,0-0.695c-1.547,0-3.001,0-4.466,0c2.611,9.949-5.063,19.566-14.841,20.017c-4.216,0.195-8.017-1.01-11.21-3.781
	c-4.979-4.324-6.592-9.825-5.326-16.255C46.63,29.394,45.193,29.394,43.658,29.394z M73.932,33.32
	c-0.02-5.604-4.568-10.123-10.166-10.097c-5.566,0.026-10.1,4.578-10.08,10.123c0.02,5.596,4.58,10.122,10.173,10.096
	C69.429,43.419,73.951,38.872,73.932,33.32z M78.933,13.25c-0.612,0-1.224-0.01-1.836,0.003c-1.786,0.039-3.196,1.431-3.231,3.215
	c-0.023,1.223-0.024,2.448,0,3.671c0.035,1.774,1.458,3.186,3.236,3.216c1.225,0.021,2.449,0.025,3.672-0.001
	c1.75-0.038,3.156-1.443,3.19-3.187c0.023-1.246,0.025-2.492,0-3.738c-0.036-1.748-1.44-3.132-3.195-3.176
	C80.157,13.24,79.544,13.252,78.933,13.25z"/>
</svg>
