<?xml version="1.0" encoding="utf-8"?>
<!-- Generator: Adobe Illustrator 16.0.0, SVG Export Plug-In . SVG Version: 6.00 Build 0)  -->
<!DOCTYPE svg PUBLIC "-//W3C//DTD SVG 1.1//EN" "http://www.w3.org/Graphics/SVG/1.1/DTD/svg11.dtd">
<svg version="1.1" id="Layer_1" xmlns="http://www.w3.org/2000/svg" xmlns:xlink="http://www.w3.org/1999/xlink" x="0px" y="0px"
	 width="64.914px" height="64.914px" viewBox="0 0 64.914 64.914" enable-background="new 0 0 64.914 64.914" xml:space="preserve">
<path fill="#4DFF95" d="M0,0v64.914h64.914V0H0z M32.454,5.292C39.581,5.3,45.421,11.16,45.378,18.26
	c-0.043,7.119-5.844,12.899-12.938,12.89c-7.127-0.009-12.945-5.849-12.922-12.968C19.543,11.081,25.36,5.284,32.454,5.292z
	 M54.719,50.707c-5.22,4.857-11.349,7.779-18.435,8.639c-1.279,0.155-2.572,0.209-3.434,0.277c-8.918-0.16-16.31-3.059-22.57-8.816
	c-0.422-0.387-0.532-0.688-0.258-1.252c4.15-8.556,10.913-13.506,20.392-14.388c10.503-0.978,20.237,4.901,24.511,14.495
	C55.124,50.107,55.077,50.374,54.719,50.707z"/>
</svg>
