<?xml version="1.0" encoding="utf-8"?>
<!-- Generator: Adobe Illustrator 16.0.0, SVG Export Plug-In . SVG Version: 6.00 Build 0)  -->
<!DOCTYPE svg PUBLIC "-//W3C//DTD SVG 1.1//EN" "http://www.w3.org/Graphics/SVG/1.1/DTD/svg11.dtd">
<svg version="1.1" id="Layer_1" xmlns="http://www.w3.org/2000/svg" xmlns:xlink="http://www.w3.org/1999/xlink" x="0px" y="0px"
	 width="500px" height="500px" viewBox="0 0 500 500" enable-background="new 0 0 500 500" xml:space="preserve">
<path fill-rule="evenodd" clip-rule="evenodd" fill="#969696" d="M246.901,8.083c56.58-0.406,102.976,15.297,143.686,44.948
	c65.573,47.758,99.548,112.958,100.423,194.69c0.567,52.93-15.719,100.784-47.629,142.206
	c-49.025,63.639-114.226,96.911-195.451,96.02c-56.94-0.624-107.283-20.002-150.185-56.962
	c-55.763-48.04-84.178-109.373-84.409-183.297c-0.029-9.294-0.248-18.714,1.081-27.864c7.702-53.047,30.224-99.105,67.158-137.886
	c16.884-17.728,36.639-32.335,58.272-43.438C174.976,18.467,212.204,7.013,246.901,8.083z M269.656,466.433
	c48.324-0.546,103.511-25.428,146.966-74.013c36.47-40.776,54.747-89.338,54.683-144.671
	c-0.083-69.798-27.894-126.854-80.814-170.654c-39.266-32.5-85.584-48.933-137.483-48.705
	c-76.652,0.337-136.901,33.155-181.264,93.761C44.889,158.839,32.962,201.751,33.4,247.954
	c0.644,67.886,26.718,123.9,78.092,167.411C151.763,449.472,199.103,466.62,269.656,466.433z"/>
<path fill-rule="evenodd" clip-rule="evenodd" fill="#FDFDFD" d="M269.656,466.433c-70.553,0.188-117.893-16.961-158.164-51.068
	C60.119,371.854,34.044,315.84,33.4,247.954c-0.438-46.203,11.488-89.115,38.343-125.803
	c44.363-60.606,104.612-93.424,181.264-93.761c51.899-0.228,98.218,16.206,137.483,48.705
	c52.921,43.801,80.731,100.856,80.814,170.654c0.064,55.333-18.213,103.895-54.683,144.671
	C373.167,441.005,317.98,465.887,269.656,466.433z"/>
<g>
	<rect x="166.077" y="112.102" fill-rule="evenodd" clip-rule="evenodd" fill="#969696" width="59.897" height="275.797"/>
	<rect x="274.025" y="112.102" fill-rule="evenodd" clip-rule="evenodd" fill="#969696" width="59.898" height="275.797"/>
</g>
</svg>
