<?xml version="1.0" encoding="utf-8"?>
<!-- Generator: Adobe Illustrator 16.0.0, SVG Export Plug-In . SVG Version: 6.00 Build 0)  -->
<!DOCTYPE svg PUBLIC "-//W3C//DTD SVG 1.1//EN" "http://www.w3.org/Graphics/SVG/1.1/DTD/svg11.dtd">
<svg version="1.1" id="Layer_1" xmlns="http://www.w3.org/2000/svg" xmlns:xlink="http://www.w3.org/1999/xlink" x="0px" y="0px"
	 width="500px" height="500px" viewBox="0 0 500 500" enable-background="new 0 0 500 500" xml:space="preserve">
<path fill-rule="evenodd" clip-rule="evenodd" fill="#969696" d="M246.901,8.083c56.58-0.406,102.976,15.297,143.686,44.948
	c65.573,47.758,99.548,112.958,100.423,194.69c0.567,52.93-15.719,100.784-47.629,142.206
	c-49.025,63.639-114.226,96.911-195.451,96.02c-56.94-0.624-107.283-20.002-150.185-56.962
	c-55.763-48.04-84.178-109.373-84.409-183.297c-0.029-9.294-0.248-18.714,1.081-27.864c7.702-53.047,30.224-99.105,67.158-137.886
	c16.884-17.728,36.639-32.335,58.272-43.438C174.976,18.467,212.204,7.013,246.901,8.083z M269.656,466.433
	c48.324-0.546,103.511-25.428,146.966-74.013c36.47-40.776,54.747-89.338,54.683-144.671
	c-0.083-69.798-27.894-126.854-80.814-170.654c-39.266-32.5-85.584-48.933-137.483-48.705
	c-76.652,0.337-136.901,33.155-181.264,93.761C44.889,158.839,32.962,201.751,33.4,247.954
	c0.644,67.886,26.718,123.9,78.092,167.411C151.763,449.472,199.103,466.62,269.656,466.433z"/>
<path fill-rule="evenodd" clip-rule="evenodd" fill="#FDFDFD" d="M269.656,466.433c-70.553,0.188-117.893-16.961-158.164-51.068
	C60.119,371.854,34.044,315.84,33.4,247.954c-0.438-46.203,11.488-89.115,38.343-125.803
	c44.363-60.606,104.612-93.424,181.264-93.761c51.899-0.228,98.218,16.206,137.483,48.705
	c52.921,43.801,80.731,100.856,80.814,170.654c0.064,55.333-18.213,103.895-54.683,144.671
	C373.167,441.005,317.98,465.887,269.656,466.433z M161.407,100.865c0,97.718,0,194.62,0,292.57
	c2.416-1.118,4.316-1.786,5.999-2.812c7.848-4.782,15.518-9.866,23.473-14.459c10.756-6.21,21.811-11.902,32.559-18.127
	c10.333-5.983,20.337-12.539,30.673-18.519c11.437-6.616,23.166-12.727,34.621-19.313c10.651-6.123,21.057-12.67,31.664-18.869
	c12.817-7.492,25.758-14.772,38.596-22.229c7.227-4.197,14.298-8.662,21.538-12.836c10.465-6.032,21.018-11.911,31.533-17.855
	c0.083-0.701,0.166-1.402,0.249-2.103C328.941,197.985,245.571,149.655,161.407,100.865z"/>
<path fill-rule="evenodd" clip-rule="evenodd" fill="#969696" d="M161.407,100.865c84.164,48.79,167.534,97.12,250.905,145.449
	c-0.083,0.701-0.166,1.402-0.249,2.103c-10.516,5.944-21.068,11.823-31.533,17.855c-7.24,4.174-14.312,8.639-21.538,12.836
	c-12.838,7.457-25.778,14.737-38.596,22.229c-10.607,6.199-21.013,12.746-31.664,18.869c-11.455,6.586-23.185,12.696-34.621,19.313
	c-10.336,5.979-20.34,12.535-30.673,18.519c-10.748,6.225-21.803,11.917-32.559,18.127c-7.955,4.593-15.625,9.677-23.473,14.459
	c-1.683,1.025-3.583,1.693-5.999,2.812C161.407,295.485,161.407,198.583,161.407,100.865z"/>
</svg>
