<?xml version="1.0" encoding="utf-8"?>
<!-- Generator: Adobe Illustrator 16.0.0, SVG Export Plug-In . SVG Version: 6.00 Build 0)  -->
<!DOCTYPE svg PUBLIC "-//W3C//DTD SVG 1.1//EN" "http://www.w3.org/Graphics/SVG/1.1/DTD/svg11.dtd">
<svg version="1.1" id="Layer_1" xmlns="http://www.w3.org/2000/svg" xmlns:xlink="http://www.w3.org/1999/xlink" x="0px" y="0px"
	 width="64.914px" height="64.914px" viewBox="0 0 64.914 64.914" enable-background="new 0 0 64.914 64.914" xml:space="preserve">
<path fill="#4DFF95" d="M0,0v64.914h64.914V0H0z M24.643,33.591c0,0.525-0.077,1.032-0.224,1.509l16.619,16.619
	c0.988-0.68,2.184-1.078,3.473-1.078c3.391,0,6.139,2.749,6.139,6.139c0,3.391-2.748,6.139-6.139,6.139
	c-3.389,0-6.138-2.748-6.138-6.139c0-1.502,0.541-2.878,1.438-3.945L23.638,36.662c-0.945,1.284-2.467,2.119-4.184,2.119
	c-2.867,0-5.189-2.324-5.189-5.19s2.322-5.19,5.189-5.19c1.165,0,2.242,0.386,3.107,1.035L39.86,12.138
	c-0.926-1.075-1.487-2.474-1.487-4.005c0-3.391,2.749-6.138,6.138-6.138c3.391,0,6.139,2.747,6.139,6.138s-2.748,6.139-6.139,6.139
	c-1.262,0-2.434-0.381-3.407-1.033L23.713,30.627C24.299,31.468,24.643,32.489,24.643,33.591z"/>
</svg>
