<?xml version="1.0" encoding="utf-8"?>
<!-- Generator: Adobe Illustrator 16.0.0, SVG Export Plug-In . SVG Version: 6.00 Build 0)  -->
<!DOCTYPE svg PUBLIC "-//W3C//DTD SVG 1.1//EN" "http://www.w3.org/Graphics/SVG/1.1/DTD/svg11.dtd">
<svg version="1.1" id="Layer_1" xmlns="http://www.w3.org/2000/svg" xmlns:xlink="http://www.w3.org/1999/xlink" x="0px" y="0px"
	 width="127.777px" height="66.667px" viewBox="0 0 127.777 66.667" enable-background="new 0 0 127.777 66.667"
	 xml:space="preserve">
<path fill-rule="evenodd" clip-rule="evenodd" fill="#20A4B2" d="M65.698,61.607c-10.028,0-20.056,0-30.083,0
	c0-18.85,0-37.699,0-56.548c18.849,0,37.698,0,56.547,0c0,18.849,0,37.698,0,56.548c-5.806,0-11.61,0-17.417,0
	c0-7.225,0-14.448,0-21.757c0.561-0.031,0.967-0.071,1.372-0.073c1.657-0.008,3.317-0.036,4.974,0.012
	c0.758,0.021,1.069-0.239,1.155-0.996c0.253-2.243,0.54-4.484,0.872-6.718c0.127-0.859-0.225-1.039-0.98-1.027
	c-2.035,0.029-4.07,0.013-6.104,0.006c-0.396-0.002-0.792-0.046-1.218-0.072c0-2.167-0.068-4.202,0.021-6.229
	c0.079-1.802,1.004-2.75,2.833-2.922c1.569-0.148,3.158-0.159,4.736-0.134c0.833,0.015,1.145-0.238,1.121-1.08
	c-0.045-1.582-0.012-3.165-0.011-4.748c0.001-0.656,0-1.312,0-2.243c-2.997,0-5.751-0.171-8.477,0.039
	c-4.688,0.359-8.021,3.42-8.956,8.056c-0.288,1.427-0.317,2.913-0.372,4.375c-0.061,1.606-0.015,3.217-0.015,4.902
	c-0.553,0.024-0.957,0.056-1.361,0.058c-1.696,0.006-3.393-0.024-5.086,0.032c-0.302,0.01-0.843,0.363-0.847,0.566
	c-0.058,2.661-0.039,5.323-0.039,8.132c2.492,0,4.847,0,7.335,0C65.698,47.158,65.698,54.383,65.698,61.607z"/>
</svg>
