<?xml version="1.0" encoding="utf-8"?>
<!-- Generator: Adobe Illustrator 16.0.0, SVG Export Plug-In . SVG Version: 6.00 Build 0)  -->
<!DOCTYPE svg PUBLIC "-//W3C//DTD SVG 1.1//EN" "http://www.w3.org/Graphics/SVG/1.1/DTD/svg11.dtd">
<svg version="1.1" id="Layer_1" xmlns="http://www.w3.org/2000/svg" xmlns:xlink="http://www.w3.org/1999/xlink" x="0px" y="0px"
	 width="127.777px" height="66.667px" viewBox="0 0 127.777 66.667" enable-background="new 0 0 127.777 66.667"
	 xml:space="preserve">
<g>
	<g>
		<g>
			<path fill-rule="evenodd" clip-rule="evenodd" fill="#20A4B2" d="M18.255,43.848c-0.192,0.732-0.249,1.481-0.18,2.23
				c0.31,3.355,0.625,6.711,0.973,10.063c0.04,0.379-0.086,1.018,0.529,1.04c0.663,0.024,0.536-0.642,0.676-1.054
				c0.03-0.086,0.03-0.185,0.041-0.277c0.244-2.202,0.546-4.399,0.71-6.606c0.134-1.793,0.638-3.578,0.219-5.396
				c-0.208-2.139-0.402-4.28-0.632-6.418c-0.13-1.208-0.314-2.41-0.481-3.614c-0.036-0.259-0.123-0.497-0.448-0.499
				c-0.26-0.001-0.385,0.179-0.461,0.395c-0.061,0.177-0.132,0.357-0.148,0.541C18.782,37.45,18.52,40.649,18.255,43.848z
				 M25.404,43.282c0.002-3.194-0.461-6.347-0.822-9.51c-0.042-0.373-0.031-0.889-0.616-0.887c-0.584,0.001-0.566,0.506-0.609,0.888
				c-0.356,3.165-0.668,6.334-0.822,9.516c-0.207,0.889-0.259,1.795-0.182,2.696c0.305,3.581,0.635,7.16,0.957,10.739
				c0.039,0.427-0.037,0.918,0.647,0.906c0.63-0.013,0.641-0.431,0.686-0.893c0.291-2.986,0.621-5.969,0.89-8.957
				C25.668,46.282,25.992,44.766,25.404,43.282z M29.815,42.535c-0.227-2.639-0.397-5.282-0.851-7.896
				c-0.073-0.421-0.124-1.002-0.638-1.024c-0.583-0.025-0.625,0.585-0.752,1.025c-0.025,0.09-0.065,0.179-0.072,0.271
				c-0.201,2.542-0.398,5.084-0.596,7.626c-0.059,0.59-0.163,1.179-0.168,1.77c-0.04,4.228,0.453,8.421,0.851,12.621
				c0.044,0.467,0.099,0.893,0.708,0.888c0.613-0.006,0.645-0.454,0.705-0.908c0.349-2.635,0.5-5.289,0.75-7.933
				C29.956,46.826,30.224,44.687,29.815,42.535z M31.409,38.977c-0.117,2.401-0.387,4.807-0.313,7.202
				c0.107,3.493,0.46,6.98,0.712,10.469c0.016,0.217,0.047,0.435,0.103,0.644c0.13,0.491,0.457,0.719,0.971,0.687
				c0.52-0.033,0.553-0.417,0.596-0.799c0.156-1.396,0.313-2.793,0.47-4.189c0.523-4.663,0.823-9.331,0.24-14.014
				c-0.053-1.214-0.087-2.43-0.162-3.643c-0.161-2.584-0.227-5.175-0.541-7.748c-0.059-0.484-0.221-0.864-0.756-0.908
				c-0.582-0.048-0.58,0.456-0.7,0.825c-0.038,0.117-0.045,0.246-0.054,0.369C31.703,31.569,31.422,35.266,31.409,38.977z
				 M38.899,43.849c-0.088-2.434-0.159-4.867-0.269-7.301c-0.194-4.335-0.412-8.67-0.616-13.006c-0.026-0.56-0.076-1.119-0.81-1.132
				c-0.736-0.012-0.927,0.506-0.962,1.128c-0.012,0.219-0.046,0.435-0.055,0.653c-0.12,2.964-0.267,5.928-0.348,8.893
				c-0.098,3.588-0.376,7.172-0.294,10.765c-0.138,4.321,0.296,8.61,0.716,12.9c0.058,0.587,0.171,1.208,0.915,1.175
				c0.741-0.033,0.91-0.638,0.957-1.278c0.11-1.496,0.271-2.988,0.341-4.485C38.605,49.389,39.178,46.64,38.899,43.849z
				 M52.252,40.102c-0.125-5.245-0.247-10.491-0.38-15.736c-0.027-1.06,0.065-2.13-0.172-3.176
				c-0.133-0.589-0.441-1.031-1.146-1.018c-0.679,0.014-0.918,0.425-0.983,1.021c-0.037,0.341-0.112,0.678-0.127,1.021
				c-0.094,1.996-0.202,3.992-0.257,5.99C49.078,32.169,49,36.135,48.91,40.1c-0.259,5.473,0.121,10.928,0.444,16.385
				c0.043,0.735,0.188,1.49,1.151,1.537c0.714,0.035,1.216-0.601,1.284-1.553c0.077-1.09,0.128-2.183,0.208-3.272
				C52.317,48.836,52.62,44.475,52.252,40.102z M40.015,43.279c-0.228,4.57,0.284,9.108,0.578,13.655
				c0.043,0.659,0.47,1.048,1.127,0.992c0.603-0.05,0.904-0.46,0.942-1.085c0.091-1.498,0.244-2.991,0.312-4.489
				c0.137-3.022,0.678-6.027,0.399-9.067c-0.034-1.062-0.067-2.122-0.104-3.183c-0.207-6.087-0.413-12.176-0.625-18.263
				c-0.007-0.216-0.047-0.436-0.105-0.643c-0.136-0.481-0.477-0.729-0.968-0.729c-0.474,0-0.729,0.286-0.85,0.727
				c-0.185,0.67-0.188,1.356-0.21,2.042c-0.124,3.903-0.261,7.806-0.361,11.71C40.078,37.724,40.058,40.502,40.015,43.279z
				 M47.865,42.159c-0.09-3.377-0.16-6.754-0.276-10.13c-0.13-3.752-0.301-7.503-0.459-11.254c-0.025-0.61-0.196-1.129-0.954-1.114
				c-0.729,0.014-1.044,0.41-1.081,1.128c-0.101,1.964-0.254,3.925-0.344,5.888c-0.062,1.344-0.044,2.692-0.075,4.038
				c-0.088,3.815-0.183,7.631-0.276,11.446c-0.162,3.284,0.025,6.563,0.2,9.841c0.087,1.622,0.233,3.242,0.396,4.859
				c0.067,0.664,0.469,1.086,1.185,1.085c0.717-0.001,0.963-0.468,1.027-1.095c0.088-0.87,0.196-1.738,0.262-2.61
				C47.77,50.22,48.044,46.196,47.865,42.159z M56.949,43.849c0.013-0.281,0.043-0.563,0.037-0.842
				c-0.101-4.376-0.194-8.752-0.313-13.127c-0.067-2.469-0.176-4.935-0.267-7.402c-0.021-0.587-0.13-1.129-0.768-1.372
				c-1.021-0.389-1.583,0.018-1.683,1.28c-0.294,3.741-0.309,7.495-0.409,11.244c-0.091,3.405-0.233,6.81-0.146,10.219
				c-0.108,1.81-0.066,3.624,0.033,5.431c0.139,2.523,0.2,5.055,0.522,7.566c0.076,0.593,0.289,1.118,1.018,1.12
				c0.706,0.003,1.199-0.305,1.34-1.042c0.035-0.184,0.068-0.369,0.082-0.556c0.187-2.646,0.406-5.291,0.54-7.94
				C57.012,46.905,57.105,45.375,56.949,43.849z M57.911,43.1c-0.041,2.47,0,4.939,0.113,7.407c0.094,2.062,0.1,4.126,0.384,6.176
				c0.111,0.802,0.456,1.377,1.368,1.348c0.856-0.027,1.193-0.583,1.263-1.351c0.41-4.52,0.56-9.048,0.546-13.584
				c0.013-0.124,0.039-0.249,0.036-0.373c-0.143-7.132-0.272-14.264-0.446-21.396c-0.032-1.311-0.021-2.63-0.262-3.931
				c-0.114-0.615-0.489-0.938-1.093-0.959c-0.616-0.022-1.123,0.169-1.241,0.871c-0.057,0.338-0.104,0.68-0.125,1.021
				c-0.284,4.593-0.303,9.192-0.394,13.79C57.987,35.78,57.811,39.438,57.911,43.1z M62.29,41.973
				c-0.017,0.06-0.046,0.12-0.047,0.181c-0.067,4.79,0.257,9.565,0.573,14.341c0.055,0.833,0.821,1.498,1.555,1.48
				c0.734-0.016,1.382-0.717,1.442-1.569c0.096-1.373,0.207-2.744,0.277-4.118c0.176-3.436,0.333-6.871,0.256-10.313
				c0.014-0.375,0.046-0.75,0.037-1.124c-0.182-7.611-0.369-15.223-0.552-22.834c-0.021-0.906,0.003-1.815-0.05-2.72
				c-0.052-0.886-0.688-1.517-1.489-1.507c-0.885,0.01-1.236,0.564-1.356,1.375c-0.228,1.522-0.196,3.057-0.242,4.586
				c-0.106,3.624-0.182,7.25-0.246,10.875C62.381,34.408,62.342,38.19,62.29,41.973z M67.12,41.6
				c-0.014,4.819-0.028,9.64-0.04,14.459c-0.003,1.415,0.457,1.864,1.916,1.859c6.196-0.019,12.394-0.048,18.591-0.058
				c6.291-0.011,12.584-0.043,18.875,0.023c1.683,0.018,3.191-0.382,4.704-1.029c6.384-2.736,9.079-10.142,7.491-15.53
				c-0.672-3.204-2.471-5.696-5.042-7.611c-3.608-2.687-7.645-3.187-11.934-2.035c-1.146,0.309-1.122,0.315-1.325-0.787
				c-1.482-8.092-5.712-14.187-13.131-17.915c-3.033-1.523-6.28-2.232-9.678-2.309c-3.166-0.07-6.227,0.413-9.178,1.576
				c-0.891,0.352-1.342,0.833-1.33,1.937c0.068,6.668,0.033,13.336,0.04,20.004C67.083,36.655,67.106,39.128,67.12,41.6z
				 M17.127,45.529c-0.068-0.55-0.13-1.076-0.201-1.602c-0.356-2.662-0.713-5.323-1.079-7.984c-0.036-0.263-0.039-0.609-0.445-0.595
				c-0.361,0.013-0.448,0.322-0.495,0.593c-0.132,0.77-0.25,1.542-0.339,2.316c-0.27,2.358-0.785,4.726-0.72,7.075
				c0.085,3.111,0.629,6.211,0.979,9.314c0.042,0.37,0.05,0.824,0.552,0.828c0.452,0.004,0.494-0.45,0.537-0.767
				C16.334,51.646,16.729,48.578,17.127,45.529z M10.016,45.505c0.276,1.868,0.536,3.726,0.837,5.575
				c0.048,0.293-0.109,0.803,0.385,0.832c0.464,0.026,0.462-0.461,0.525-0.77c0.58-2.841,1.287-5.666,0.521-8.603
				c-0.25-0.96-0.271-1.979-0.564-2.941c-0.072-0.235-0.116-0.554-0.399-0.571c-0.321-0.02-0.349,0.319-0.385,0.55
				C10.622,41.551,10.321,43.527,10.016,45.505z"/>
			<path fill-rule="evenodd" clip-rule="evenodd" fill="#20A4B2" d="M67.12,41.6c-0.014-2.472-0.037-4.944-0.04-7.416
				c-0.007-6.668,0.028-13.336-0.04-20.004c-0.012-1.104,0.439-1.585,1.33-1.937c2.951-1.163,6.012-1.646,9.178-1.576
				c3.397,0.076,6.645,0.785,9.678,2.309c7.419,3.729,11.648,9.823,13.131,17.915c0.203,1.103,0.18,1.096,1.325,0.787
				c4.289-1.151,8.325-0.651,11.934,2.035c2.571,1.915,4.37,4.407,5.042,7.611c-0.424,0.374-0.943,0.273-1.436,0.273
				C100.521,41.602,83.82,41.6,67.12,41.6z"/>
			<path fill-rule="evenodd" clip-rule="evenodd" fill="#20A4B2" d="M67.12,41.6c16.7,0,33.4,0.002,50.102-0.002
				c0.492,0,1.012,0.101,1.436-0.273c1.588,5.389-1.107,12.794-7.491,15.53c-1.513,0.647-3.021,1.047-4.704,1.029
				c-6.291-0.066-12.584-0.034-18.875-0.023c-6.197,0.01-12.395,0.039-18.591,0.058c-1.459,0.005-1.919-0.444-1.916-1.859
				C67.092,51.239,67.106,46.419,67.12,41.6z"/>
			<path fill-rule="evenodd" clip-rule="evenodd" fill="#20A4B2" d="M62.29,41.973c0.052-3.782,0.091-7.564,0.158-11.347
				c0.064-3.625,0.14-7.251,0.246-10.875c0.046-1.529,0.015-3.063,0.242-4.586c0.121-0.811,0.471-1.365,1.356-1.375
				c0.802-0.01,1.438,0.621,1.489,1.507c0.053,0.904,0.028,1.813,0.05,2.72c0.183,7.611,0.37,15.223,0.552,22.834
				c0.009,0.374-0.023,0.749-0.037,1.124C64.995,41.974,63.643,41.973,62.29,41.973z"/>
			<path fill-rule="evenodd" clip-rule="evenodd" fill="#20A4B2" d="M57.911,43.1c-0.1-3.662,0.076-7.319,0.148-10.979
				c0.091-4.598,0.11-9.197,0.394-13.79c0.021-0.342,0.068-0.684,0.125-1.021c0.118-0.702,0.625-0.894,1.241-0.871
				c0.604,0.021,0.979,0.344,1.093,0.959c0.242,1.301,0.23,2.62,0.262,3.931c0.174,7.132,0.304,14.264,0.446,21.396
				c0.002,0.124-0.023,0.249-0.036,0.374C60.36,43.097,59.136,43.098,57.911,43.1z"/>
			<path fill-rule="evenodd" clip-rule="evenodd" fill="#20A4B2" d="M53.4,43.849c-0.087-3.409,0.055-6.813,0.146-10.219
				c0.1-3.749,0.115-7.503,0.409-11.244c0.1-1.263,0.661-1.669,1.683-1.28c0.637,0.243,0.746,0.785,0.768,1.372
				c0.091,2.468,0.2,4.934,0.267,7.402c0.119,4.375,0.213,8.751,0.313,13.127c0.007,0.279-0.023,0.561-0.037,0.842
				C55.767,43.849,54.584,43.849,53.4,43.849z"/>
			<path fill-rule="evenodd" clip-rule="evenodd" fill="#20A4B2" d="M44.399,42.161c0.093-3.815,0.188-7.631,0.276-11.446
				c0.031-1.346,0.013-2.694,0.075-4.038c0.09-1.963,0.244-3.924,0.344-5.888c0.037-0.718,0.353-1.114,1.081-1.128
				c0.758-0.015,0.928,0.504,0.954,1.114c0.159,3.751,0.33,7.502,0.459,11.254c0.117,3.376,0.187,6.753,0.276,10.13
				C46.71,42.159,45.555,42.16,44.399,42.161z"/>
			<path fill-rule="evenodd" clip-rule="evenodd" fill="#20A4B2" d="M40.015,43.279c0.043-2.777,0.063-5.556,0.135-8.333
				c0.101-3.904,0.238-7.807,0.361-11.71c0.021-0.686,0.025-1.372,0.21-2.042c0.121-0.44,0.376-0.727,0.85-0.727
				c0.491,0,0.832,0.248,0.968,0.729c0.059,0.207,0.099,0.427,0.105,0.643c0.212,6.087,0.418,12.176,0.625,18.263
				c0.036,1.061,0.069,2.121,0.104,3.183C42.253,43.283,41.134,43.281,40.015,43.279z"/>
			<path fill-rule="evenodd" clip-rule="evenodd" fill="#20A4B2" d="M62.29,41.973c1.353,0,2.705,0.001,4.057,0.002
				c0.077,3.441-0.08,6.877-0.256,10.313c-0.07,1.374-0.182,2.745-0.277,4.118c-0.061,0.853-0.708,1.554-1.442,1.569
				c-0.734,0.018-1.5-0.647-1.555-1.48c-0.316-4.775-0.64-9.551-0.573-14.341C62.244,42.093,62.273,42.032,62.29,41.973z"/>
			<path fill-rule="evenodd" clip-rule="evenodd" fill="#20A4B2" d="M48.91,40.1c0.09-3.965,0.168-7.931,0.276-11.896
				c0.055-1.998,0.163-3.994,0.257-5.99c0.016-0.343,0.09-0.68,0.127-1.021c0.065-0.597,0.305-1.008,0.983-1.021
				c0.704-0.014,1.013,0.429,1.146,1.018c0.237,1.046,0.145,2.116,0.172,3.176c0.133,5.245,0.254,10.491,0.38,15.736
				C51.138,40.101,50.024,40.101,48.91,40.1z"/>
			<path fill-rule="evenodd" clip-rule="evenodd" fill="#20A4B2" d="M35.546,43.849c-0.082-3.593,0.196-7.177,0.294-10.765
				c0.082-2.965,0.228-5.929,0.348-8.893c0.009-0.219,0.043-0.435,0.055-0.653c0.035-0.622,0.226-1.14,0.962-1.128
				c0.733,0.013,0.783,0.572,0.81,1.132c0.205,4.336,0.422,8.671,0.616,13.006c0.109,2.434,0.181,4.867,0.269,7.301
				C37.782,43.849,36.664,43.849,35.546,43.849z"/>
			<path fill-rule="evenodd" clip-rule="evenodd" fill="#20A4B2" d="M48.91,40.1c1.114,0.001,2.228,0.001,3.342,0.002
				c0.368,4.373,0.065,8.734-0.255,13.095c-0.08,1.09-0.131,2.183-0.208,3.272c-0.068,0.952-0.569,1.588-1.284,1.553
				c-0.963-0.047-1.108-0.802-1.151-1.537C49.031,51.027,48.651,45.572,48.91,40.1z"/>
			<path fill-rule="evenodd" clip-rule="evenodd" fill="#20A4B2" d="M34.188,38.976c0.583,4.683,0.283,9.351-0.24,14.014
				c-0.157,1.396-0.313,2.793-0.47,4.189c-0.043,0.382-0.076,0.766-0.596,0.799c-0.514,0.032-0.84-0.195-0.971-0.687
				c-0.056-0.209-0.087-0.427-0.103-0.644c-0.252-3.488-0.605-6.976-0.712-10.469c-0.074-2.396,0.196-4.801,0.313-7.202
				C32.335,38.976,33.262,38.976,34.188,38.976z"/>
			<path fill-rule="evenodd" clip-rule="evenodd" fill="#20A4B2" d="M57.911,43.1c1.225-0.002,2.449-0.003,3.674-0.003
				c0.014,4.535-0.136,9.063-0.546,13.583c-0.07,0.768-0.407,1.323-1.263,1.351c-0.913,0.029-1.257-0.546-1.368-1.348
				c-0.284-2.05-0.29-4.114-0.384-6.176C57.912,48.039,57.87,45.569,57.911,43.1z"/>
			<path fill-rule="evenodd" clip-rule="evenodd" fill="#20A4B2" d="M44.399,42.161c1.156-0.001,2.311-0.002,3.466-0.002
				c0.179,4.037-0.095,8.061-0.396,12.082c-0.065,0.872-0.173,1.74-0.262,2.61c-0.064,0.627-0.31,1.094-1.027,1.095
				c-0.715,0.001-1.118-0.421-1.185-1.085c-0.163-1.617-0.31-3.237-0.396-4.859C44.425,48.725,44.237,45.445,44.399,42.161z"/>
			<path fill-rule="evenodd" clip-rule="evenodd" fill="#20A4B2" d="M53.4,43.849c1.184,0,2.366,0,3.549,0
				c0.156,1.526,0.063,3.057-0.015,4.579c-0.134,2.649-0.353,5.295-0.54,7.94c-0.013,0.187-0.046,0.372-0.082,0.556
				c-0.142,0.737-0.635,1.045-1.34,1.042c-0.729-0.002-0.941-0.527-1.018-1.12c-0.322-2.512-0.383-5.043-0.522-7.566
				C53.334,47.473,53.292,45.658,53.4,43.849z"/>
			<path fill-rule="evenodd" clip-rule="evenodd" fill="#20A4B2" d="M17.127,45.529c-0.398,3.049-0.793,6.116-1.21,9.18
				c-0.043,0.316-0.085,0.771-0.537,0.767c-0.502-0.004-0.511-0.458-0.552-0.828c-0.35-3.104-0.893-6.203-0.979-9.314
				c-0.065-2.35,0.45-4.717,0.72-7.075c0.089-0.774,0.207-1.547,0.339-2.316c0.046-0.271,0.134-0.58,0.495-0.593
				c0.406-0.015,0.409,0.332,0.445,0.595c0.366,2.661,0.723,5.322,1.079,7.984C16.998,44.453,17.059,44.979,17.127,45.529z"/>
			<path fill-rule="evenodd" clip-rule="evenodd" fill="#20A4B2" d="M40.015,43.279c1.119,0.002,2.238,0.004,3.357,0.006
				c0.279,3.04-0.262,6.045-0.399,9.067c-0.068,1.498-0.221,2.991-0.312,4.489c-0.038,0.625-0.339,1.035-0.942,1.085
				c-0.657,0.056-1.084-0.333-1.127-0.992C40.299,52.388,39.787,47.85,40.015,43.279z"/>
			<path fill-rule="evenodd" clip-rule="evenodd" fill="#20A4B2" d="M29.815,42.535c0.409,2.151,0.141,4.291-0.063,6.439
				c-0.251,2.644-0.402,5.298-0.75,7.933c-0.06,0.454-0.092,0.902-0.705,0.908c-0.61,0.005-0.664-0.421-0.708-0.888
				c-0.397-4.2-0.891-8.394-0.851-12.621c0.005-0.591,0.109-1.18,0.168-1.77C27.876,42.537,28.846,42.536,29.815,42.535z"/>
			<path fill-rule="evenodd" clip-rule="evenodd" fill="#20A4B2" d="M35.546,43.849c1.118,0,2.236,0,3.354,0
				c0.278,2.791-0.294,5.54-0.425,8.312c-0.07,1.497-0.23,2.989-0.341,4.485c-0.047,0.641-0.216,1.245-0.957,1.278
				c-0.744,0.033-0.857-0.588-0.915-1.175C35.842,52.459,35.408,48.17,35.546,43.849z"/>
			<path fill-rule="evenodd" clip-rule="evenodd" fill="#20A4B2" d="M25.404,43.282c0.588,1.483,0.264,3,0.129,4.499
				c-0.269,2.988-0.6,5.971-0.89,8.957c-0.045,0.462-0.056,0.88-0.686,0.893c-0.684,0.012-0.608-0.479-0.647-0.906
				c-0.321-3.579-0.652-7.158-0.957-10.739c-0.077-0.901-0.025-1.808,0.182-2.696C23.491,43.286,24.447,43.284,25.404,43.282z"/>
			<path fill-rule="evenodd" clip-rule="evenodd" fill="#20A4B2" d="M21.223,43.848c0.419,1.817-0.085,3.603-0.219,5.396
				c-0.164,2.207-0.467,4.404-0.71,6.606c-0.01,0.093-0.01,0.191-0.041,0.277c-0.141,0.412-0.013,1.078-0.676,1.054
				c-0.615-0.022-0.489-0.661-0.529-1.04c-0.347-3.352-0.663-6.707-0.973-10.063c-0.069-0.749-0.012-1.498,0.18-2.229
				C19.244,43.849,20.233,43.848,21.223,43.848z"/>
			<path fill-rule="evenodd" clip-rule="evenodd" fill="#20A4B2" d="M34.188,38.976c-0.927,0-1.853,0-2.779,0.001
				c0.013-3.711,0.294-7.407,0.566-11.105c0.009-0.123,0.016-0.252,0.054-0.369c0.12-0.369,0.118-0.873,0.7-0.825
				c0.535,0.044,0.697,0.424,0.756,0.908c0.314,2.573,0.379,5.164,0.541,7.748C34.102,36.546,34.136,37.762,34.188,38.976z"/>
			<path fill-rule="evenodd" clip-rule="evenodd" fill="#20A4B2" d="M10.016,45.505c0.305-1.978,0.606-3.954,0.921-5.928
				c0.037-0.23,0.064-0.569,0.385-0.55c0.283,0.018,0.327,0.336,0.399,0.571c0.293,0.962,0.314,1.981,0.564,2.941
				c0.766,2.937,0.059,5.762-0.521,8.603c-0.063,0.309-0.061,0.796-0.525,0.77c-0.495-0.029-0.337-0.539-0.385-0.832
				C10.552,49.23,10.292,47.373,10.016,45.505z"/>
			<path fill-rule="evenodd" clip-rule="evenodd" fill="#20A4B2" d="M25.404,43.282c-0.957,0.002-1.913,0.004-2.869,0.007
				c0.154-3.182,0.466-6.351,0.822-9.516c0.043-0.382,0.025-0.887,0.609-0.888c0.584-0.002,0.573,0.514,0.616,0.887
				C24.942,36.936,25.406,40.088,25.404,43.282z"/>
			<path fill-rule="evenodd" clip-rule="evenodd" fill="#20A4B2" d="M21.223,43.848c-0.989,0-1.979,0.001-2.968,0.001
				c0.265-3.199,0.527-6.398,0.798-9.597c0.016-0.184,0.087-0.364,0.148-0.541c0.076-0.216,0.201-0.396,0.461-0.395
				c0.325,0.002,0.412,0.24,0.448,0.499c0.167,1.204,0.352,2.406,0.481,3.614C20.82,39.567,21.014,41.709,21.223,43.848z"/>
			<path fill-rule="evenodd" clip-rule="evenodd" fill="#20A4B2" d="M29.815,42.535c-0.969,0.001-1.939,0.002-2.909,0.002
				c0.198-2.542,0.395-5.084,0.596-7.626c0.007-0.092,0.047-0.181,0.072-0.271c0.127-0.44,0.169-1.051,0.752-1.025
				c0.514,0.022,0.565,0.604,0.638,1.024C29.417,37.253,29.588,39.896,29.815,42.535z"/>
		</g>
	</g>
</g>
</svg>
