<?xml version="1.0" encoding="utf-8"?>
<!-- Generator: Adobe Illustrator 16.0.0, SVG Export Plug-In . SVG Version: 6.00 Build 0)  -->
<!DOCTYPE svg PUBLIC "-//W3C//DTD SVG 1.1//EN" "http://www.w3.org/Graphics/SVG/1.1/DTD/svg11.dtd">
<svg version="1.1" id="Layer_1" xmlns="http://www.w3.org/2000/svg" xmlns:xlink="http://www.w3.org/1999/xlink" x="0px" y="0px"
	 width="127.777px" height="66.667px" viewBox="0 0 127.777 66.667" enable-background="new 0 0 127.777 66.667"
	 xml:space="preserve">
<path fill-rule="evenodd" clip-rule="evenodd" fill="#20A4B2" d="M50.067,49.171c-6.997-0.363-11.612-5.34-12.888-9.764
	c1.003,0.043,1.996,0.146,2.984,0.111c0.999-0.035,1.993-0.207,3-0.383c-6.891-2.143-10.591-6.739-10.998-13.96
	c1.974,0.862,3.954,1.554,6.294,1.575c-3.06-2.223-5.035-5.014-5.829-8.568c-0.795-3.562-0.273-6.945,1.525-10.195
	c7.639,8.968,17.276,13.917,29.069,14.732c-0.091-0.904-0.21-1.714-0.248-2.528c-0.206-4.38,1.297-8.1,4.506-11.066
	c3.529-3.263,7.746-4.335,12.426-3.458c2.703,0.507,5.063,1.782,7.01,3.76c0.287,0.29,0.547,0.371,0.965,0.277
	C90.655,9.08,93.28,8.087,95.759,6.7c0.094-0.055,0.193-0.104,0.293-0.147c0.029-0.014,0.07-0.002,0.186-0.002
	c-1.063,3.193-3.053,5.621-5.783,7.51c2.654-0.198,5.139-1,7.711-2.04c-1.689,2.466-3.553,4.541-5.766,6.292
	c-0.057,0.044-0.111,0.098-0.176,0.131c-0.924,0.495-1.086,1.265-1.063,2.275c0.121,5.404-0.982,10.586-2.994,15.591
	c-1.57,3.904-3.672,7.492-6.328,10.748c-2.162,2.648-4.631,4.979-7.414,6.982c-3.09,2.221-6.434,3.938-10.027,5.148
	c-3.134,1.057-6.363,1.709-9.667,1.961c-3.985,0.305-7.953,0.148-11.869-0.68c-3.308-0.701-6.505-1.752-9.52-3.307
	c-1.262-0.65-2.502-1.342-3.73-2.086c3.683,0.256,7.293,0.033,10.832-0.979C43.977,53.087,47.208,51.493,50.067,49.171z"/>
</svg>
